<svg xmlns="http://www.w3.org/2000/svg" width="30" height="30" viewBox="0 0 30 30">
  <path id="iconmonstr-instagram-11" d="M15,2.7c4.005,0,4.48.015,6.062.087,4.065.185,5.964,2.114,6.149,6.149C27.284,10.521,27.3,11,27.3,15s-.015,4.48-.086,6.061c-.186,4.031-2.08,5.964-6.149,6.149-1.582.073-2.055.088-6.062.088s-4.48-.015-6.061-.088c-4.075-.186-5.964-2.124-6.149-6.15C2.717,19.48,2.7,19.006,2.7,15s.016-4.479.088-6.061C2.976,4.905,4.87,2.975,8.939,2.79,10.521,2.719,10.995,2.7,15,2.7ZM15,0c-4.074,0-4.584.017-6.184.09C3.369.34.341,3.363.091,8.815.017,10.416,0,10.926,0,15s.017,4.585.09,6.185c.25,5.448,3.273,8.475,8.725,8.725,1.6.073,2.111.09,6.185.09s4.585-.017,6.185-.09c5.443-.25,8.478-3.273,8.724-8.725.074-1.6.091-2.111.091-6.185s-.017-4.584-.09-6.184C29.665,3.374,26.639.341,21.186.091,19.585.017,19.074,0,15,0Zm0,7.3A7.7,7.7,0,1,0,22.7,15,7.7,7.7,0,0,0,15,7.3ZM15,20a5,5,0,1,1,5-5A5,5,0,0,1,15,20ZM23.008,5.194a1.8,1.8,0,1,0,1.8,1.8A1.8,1.8,0,0,0,23.008,5.194Z" fill="#fff"/>
</svg>
