<svg id="tiktok-logo-4509" xmlns="http://www.w3.org/2000/svg" width="32" height="32" viewBox="0 0 32 32">
  <path id="Path_98" data-name="Path 98" d="M0,3.888V28.112A3.887,3.887,0,0,0,3.888,32H28.112A3.887,3.887,0,0,0,32,28.112V3.888A3.887,3.887,0,0,0,28.112,0H3.888A3.887,3.887,0,0,0,0,3.888Zm25.258,7.944v2.4a8.385,8.385,0,0,1-5.131-1.743l.017,7.4A6.2,6.2,0,0,1,18.286,24.3a6.327,6.327,0,0,1-3.533,1.767,6.534,6.534,0,0,1-.954.07,6.346,6.346,0,0,1-3.889-1.315,6.515,6.515,0,0,1-.6-.522,6.218,6.218,0,0,1-.281-8.575A6.345,6.345,0,0,1,13.8,13.589a6.537,6.537,0,0,1,.954.07v3.36a2.992,2.992,0,1,0,2.057,2.842l0-4.953V5.867h3.309a5.177,5.177,0,0,0,.1.958,5.124,5.124,0,0,0,5.027,4.117h.01v.891Z" fill="#fff"/>
</svg>
